<svg width="356" height="334" viewBox="0 0 356 334" fill="none" xmlns="http://www.w3.org/2000/svg">
<rect width="356" height="334" rx="76" fill="#007BFF"/>
<path d="M192.504 249C191.309 248.851 190.488 247.731 190.04 245.64C189.592 243.549 190.413 240.115 192.504 235.336C193.251 233.395 194.819 229.811 197.208 224.584C199.597 219.357 202.435 213.085 205.72 205.768C208.856 198.451 212.291 190.835 216.024 182.92C219.608 174.856 223.117 167.165 226.552 159.848C229.837 152.381 232.824 145.885 235.512 140.36C238.2 134.685 240.141 130.728 241.336 128.488C243.875 123.709 246.189 120.275 248.28 118.184C250.221 115.944 251.715 114.749 252.76 114.6H201.912C202.808 114.6 203.405 115.645 203.704 117.736C204.003 119.827 203.405 123.411 201.912 128.488C201.165 130.579 199.971 134.013 198.328 138.792C196.536 143.571 194.445 149.245 192.056 155.816C189.667 162.237 187.053 169.181 184.216 176.648C181.379 183.965 178.541 191.357 175.704 198.824C172.717 206.291 169.955 213.309 167.416 219.88H167.192C164.653 213.16 161.891 206.067 158.904 198.6C155.917 190.984 153.005 183.443 150.168 175.976C147.331 168.509 144.643 161.565 142.104 155.144C139.565 148.573 137.4 142.899 135.608 138.12C133.816 133.341 132.621 129.981 132.024 128.04C130.381 123.112 129.709 119.677 130.008 117.736C130.307 115.645 130.979 114.6 132.024 114.6H82.744C83.64 114.6 85.0587 115.645 87 117.736C88.792 119.677 90.8827 123.037 93.272 127.816C94.3173 129.907 96.1093 133.715 98.648 139.24C101.187 144.765 104.173 151.261 107.608 158.728C111.043 166.045 114.627 173.736 118.36 181.8C121.944 189.715 125.379 197.405 128.664 204.872C131.949 212.189 134.861 218.611 137.4 224.136C139.789 229.512 141.432 233.245 142.328 235.336C144.269 240.115 145.091 243.549 144.792 245.64C144.344 247.731 143.523 248.851 142.328 249H192.504Z" fill="white"/>
</svg>
